<?xml version="1.0" encoding="utf-8"?>
<!-- Generator: Adobe Illustrator 17.1.0, SVG Export Plug-In . SVG Version: 6.00 Build 0)  -->
<!DOCTYPE svg PUBLIC "-//W3C//DTD SVG 1.1//EN" "http://www.w3.org/Graphics/SVG/1.1/DTD/svg11.dtd">
<svg version="1.1" id="Layer_1" xmlns="http://www.w3.org/2000/svg" xmlns:xlink="http://www.w3.org/1999/xlink" x="0px" y="0px"
	 viewBox="0 0 160 151" enable-background="new 0 0 160 151" xml:space="preserve">
<circle cx="79" cy="75" r="69"/>
<g id="XMLID_2_">
	<g>
		<path fill="#FFFFFF" d="M129.8,18.7c5,0.8,0.3,5.1-1.3,7c-14.9,18.2-29.3,37.2-42.2,56.5c-2.1,3.2-5.1,7.1-7.3,10.5
			c-1.9,2.9-4.7,9-7.7,10.4c-2.2,1-9.2,1.4-11.6,0.4c-1.5-0.7-3.1-3.7-3.9-5.7c-2.2-5.1-3.3-9.3-4.8-14.5c-0.6-2-2-5.5-1.4-7.9
			c0.5-2,2.7-3.6,4.8-4.8c2.1-1.3,4.7-2.8,7.5-2.2c2.3,0.6,3.4,4.4,4.3,7c0.5,1.4,2.1,7.3,3.9,7.3c0.9,0,2.1-2,3-3.4
			c5.9-9.4,12-18.8,18.1-27.4c5.2-7.4,11.1-15.2,16.8-22.2c4.5-5.5,8.1-10.6,17.2-11.1C126.6,18.7,128.2,18.7,129.8,18.7z"/>
		<path fill="#FFFFFF" d="M129.2,68.1c1.4,10.3-0.6,21-4.6,29.1c-7.2,14.4-22.3,26.7-42.2,28.1c-2,0-4.1,0-6.1,0
			c-14.5-1.2-24.4-7.1-32.5-14.7c-7.6-8.2-13.4-18-14.7-32.5c0-2.1,0-4.2,0-6.3c0.6-8.6,3.8-17.5,7.9-24C41,41.5,47,35.8,53,32.1
			c6.3-3.8,15.1-7.1,24.3-7.5c9.7-0.4,18.7,1.9,25.7,6.1c-1.6,1.8-2.8,4.2-4.6,5.7c-9.7-6.3-26.5-5.1-36.3-0.9
			c-8.5,3.7-16.1,10.5-20.4,18.4c-4.7,8.6-6.9,21-3.9,32c2.6,9.8,8.1,17.6,15.6,23.2c7.5,5.7,17.7,9.7,29.7,8.6
			c11.2-1.1,19.6-5.5,26.5-12.3c6.6-6.6,11.5-14.8,12.5-26.3c1-12-1.7-22.4-8.1-30c1.6-1.9,3-3.9,4.8-5.5
			C123.9,50.2,127.8,58.1,129.2,68.1z"/>
	</g>
</g>
</svg>
