<?xml version="1.0" encoding="utf-8"?>
<!-- Generator: Adobe Illustrator 17.1.0, SVG Export Plug-In . SVG Version: 6.00 Build 0)  -->
<!DOCTYPE svg PUBLIC "-//W3C//DTD SVG 1.1//EN" "http://www.w3.org/Graphics/SVG/1.1/DTD/svg11.dtd">
<svg version="1.1" id="Layer_1" xmlns="http://www.w3.org/2000/svg" xmlns:xlink="http://www.w3.org/1999/xlink" x="0px" y="0px"
	 viewBox="0 0 160 151" enable-background="new 0 0 160 151" xml:space="preserve">
<circle cx="79" cy="74" r="69"/>
<g id="XMLID_2_">
	<g>
		<path fill="#FFFFFF" d="M85.8,21.1c0.3,1.7-2.1,0.6-3.1,0.9C85.9,32.7,70,37.3,66,28.6c-1.6,0-3.2,0-4.8,0
			C56.2,11.1,82.6,6.6,85.8,21.1z"/>
		<path fill="#FFFFFF" d="M113.8,79.9c-1.2,0.4-2.7,0.5-3.5,1.3c-4.4-5.4-5.7-13.9-10.5-18.9c-2.7-0.3-7,0.8-8.3-0.9
			c-1.1-5.6,9.5-3.8,11.8-2.2C108.6,62.9,110.4,75.2,113.8,79.9z"/>
		<path fill="#FFFFFF" d="M125.7,67.2c-3.4,1-10.5-1.8-14,1.8c-0.2-1.8-1.5-2.6-1.8-4.4C114.9,62.1,124.7,62.6,125.7,67.2z"/>
		<path fill="#FFFFFF" d="M62.1,81.2c0,1.6,0,3.2,0,4.8c-12.7-4.2-21.9-17.3-38.2-13.6c1.2-4.4,6.7-5.1,10.5-4.8
			C44.7,68.4,53.5,79,62.1,81.2z"/>
		<path fill="#FFFFFF" d="M94.1,53.1c0.6,6-11.2,3.4-18,4c-3.2-2.3-4.8-6.3-7-9.7c-3.3,4.3-6,9.2-9.2,13.6c4,4.6,13.4,4.4,15.8,9.7
			c1.7,3.7,0.4,11.5,0.4,16.7c0,6.8,0.2,21.5-8.3,14.9C63.7,99.2,67.2,86,66,79c-3.8-2.4-7.5-4.4-12.3-7c-4.5-2.5-11.9-4.3-11-11.4
			c0.5-3.8,4.8-8.6,8.3-14c3.6-5.4,7.7-17.4,16.2-14c3.1,1.2,4.9,5.8,6.6,8.3c2.1,3.1,3.6,5.9,5.7,9.2
			C85.3,50.4,93.6,48.7,94.1,53.1z"/>
		<polygon fill="#FFFFFF" points="98.9,67.2 104.2,76.4 80.1,100.8 80.1,72.9 		"/>
	</g>
	<g>
		<path fill="none" stroke="#FFFFFF" stroke-width="6" stroke-miterlimit="10" d="M133.7,100.8c0,8.8-7.1,15.8-15.8,15.8
			s-15.8-7.1-15.8-15.8c0-8.8,7.1-15.8,15.8-15.8S133.7,92,133.7,100.8z"/>
		<path fill="none" stroke="#FFFFFF" stroke-width="6" stroke-miterlimit="10" d="M58.8,100.5c0,8.7-7.1,15.8-15.8,15.8
			c-8.7,0-15.8-7.1-15.8-15.8c0-8.8,7.1-15.8,15.8-15.8C51.7,84.7,58.8,91.8,58.8,100.5z"/>
	</g>
</g>
</svg>
