<?xml version="1.0" encoding="utf-8"?>
<!-- Generator: Adobe Illustrator 17.1.0, SVG Export Plug-In . SVG Version: 6.00 Build 0)  -->
<!DOCTYPE svg PUBLIC "-//W3C//DTD SVG 1.1//EN" "http://www.w3.org/Graphics/SVG/1.1/DTD/svg11.dtd">
<svg version="1.1" id="Layer_1" xmlns="http://www.w3.org/2000/svg" xmlns:xlink="http://www.w3.org/1999/xlink" x="0px" y="0px"
	 viewBox="0 0 160 151" enable-background="new 0 0 160 151" xml:space="preserve">
<path fill="#343434" d="M46.6,13c0.7,0,1.3,0,2,0c2.4,1.6,1.5,10.8,1.5,15c0,6.1,0,11.4,0,15.7c1.2,0,2.5,0,3.7,0
	c0.4-7,0.2-16.2,0.2-24.1c0-2.5-0.7-5.5,1.5-6.6c0.6,0,1.1,0,1.7,0c2,1.2,1.5,4.1,1.5,6.6c0,7.5,0,16.6,0,24.1c1.2,0,2.5,0,3.7,0
	c0.4-7.1,0.2-16.1,0.2-24.1c0-2.5-0.6-5.4,1.5-6.6c0.6,0,1.1,0,1.7,0c2,1.3,1.5,4.2,1.5,6.6c0,7.5,0,16.6,0,24.1c1.2,0,2.5,0,3.7,0
	c0.4-7.1,0.2-16.1,0.2-24.1c0-2.5-0.7-5.5,1.5-6.6c0.6,0,1.1,0,1.7,0c2.4,2,1.5,6.2,1.5,9.8c0,7.2,0,14.9,0,22.6
	c0,4.1,0.5,8.4-0.2,11.1c-1.1,3.9-4.8,5.7-8.4,6.1c0,19.5,0,42.4,0,63.1c0,6.8,0.4,11.6-5.2,13c-1,0-2,0-2.9,0
	c-5.6-1.4-5.2-6.5-5.2-13.3c0-20.6,0-43.4,0-62.9c-3.5-0.3-7.1-2.1-8.4-5.9c-0.9-2.6-0.5-6.5-0.5-10.8c0-8,0-14.5,0-22.6
	C45.1,19.3,44.5,13.6,46.6,13z"/>
<path fill="#343434" d="M99.4,13c1.1,0,2.3,0,3.4,0c2.6,0.5,6.4,2.7,7.9,6.6c1.2,3.2,0.7,8.4,0.7,13.8c0,29.2,0,58,0,87
	c0,8.6,1.3,17.4-5.6,18.2c-8.6,1-7.9-7.5-7.9-14.7c0-12.1,0-23.2,0-34.9c-2.3-0.2-5.2,0.3-7.1-0.2c0-15.4,0-36.1,0-52.8
	c0-6.2-0.6-12.5,1-16.7C92.9,16.2,96.1,13.8,99.4,13z"/>
</svg>
