<?xml version="1.0" encoding="utf-8"?>
<!-- Generator: Adobe Illustrator 15.1.0, SVG Export Plug-In  -->
<!DOCTYPE svg PUBLIC "-//W3C//DTD SVG 1.1//EN" "http://www.w3.org/Graphics/SVG/1.1/DTD/svg11.dtd" [
	<!ENTITY ns_flows "http://ns.adobe.com/Flows/1.0/">
]>
<svg version="1.1"
	 xmlns="http://www.w3.org/2000/svg" xmlns:xlink="http://www.w3.org/1999/xlink" xmlns:a="http://ns.adobe.com/AdobeSVGViewerExtensions/3.0/"
	 x="0px" y="0px" width="160px" height="151px" viewBox="-9.46 -10.5 160 151"
	 overflow="visible" enable-background="new -9.46 -10.5 160 151" xml:space="preserve">
<defs>
</defs>
<circle cx="69" cy="69" r="69"/>
<g id="XMLID_2_">
	<g>
		<path fill="#FFFFFF" d="M119.751,12.72c5.028,0.803,0.265,5.119-1.257,6.967c-14.882,18.206-29.278,37.221-42.189,56.502
			c-2.113,3.158-5.089,7.073-7.339,10.549c-1.893,2.938-4.703,9.02-7.687,10.368c-2.219,1.015-9.201,1.4-11.625,0.363
			c-1.522-0.659-3.06-3.719-3.931-5.726c-2.211-5.081-3.34-9.33-4.824-14.479c-0.576-1.991-2.015-5.468-1.432-7.868
			c0.485-2.007,2.711-3.574,4.824-4.824c2.121-1.265,4.718-2.832,7.512-2.151c2.348,0.576,3.393,4.43,4.287,6.975
			c0.507,1.432,2.136,7.271,3.938,7.331c0.894,0.03,2.136-1.962,3.037-3.4c5.884-9.376,12.041-18.751,18.062-27.354
			c5.173-7.391,11.141-15.176,16.805-22.174c4.476-5.521,8.104-10.595,17.168-11.079C116.646,12.72,118.198,12.72,119.751,12.72z"/>
		<path fill="#FFFFFF" d="M119.213,62.065c1.409,10.345-0.567,21.03-4.649,29.142c-7.217,14.358-22.303,26.748-42.197,28.073
			c-2.03,0-4.052,0-6.081,0c-14.502-1.227-24.378-7.089-32.542-14.661C26.17,96.463,20.316,86.58,19.082,72.077
			c0-2.082,0-4.173,0-6.255c0.583-8.634,3.779-17.532,7.869-23.961c4.014-6.316,10.087-12.079,16.093-15.737
			c6.255-3.802,15.062-7.088,24.317-7.505c9.671-0.439,18.729,1.871,25.748,6.073c-1.643,1.818-2.756,4.158-4.649,5.726
			c-9.724-6.255-26.513-5.097-36.298-0.894c-8.542,3.665-16.062,10.534-20.387,18.417c-4.718,8.61-6.876,21.007-3.93,32.003
			c2.62,9.77,8.133,17.601,15.555,23.242c7.482,5.688,17.706,9.724,29.679,8.588c11.155-1.068,19.645-5.521,26.468-12.337
			c6.559-6.558,11.534-14.828,12.519-26.286c1.022-12.018-1.651-22.438-8.051-30.042c1.599-1.855,3.007-3.908,4.832-5.543
			C113.874,44.186,117.85,52.069,119.213,62.065z"/>
	</g>
	<g>
	</g>
</g>
</svg>
