<?xml version="1.0" encoding="utf-8"?>
<!-- Generator: Adobe Illustrator 15.1.0, SVG Export Plug-In  -->
<!DOCTYPE svg PUBLIC "-//W3C//DTD SVG 1.1//EN" "http://www.w3.org/Graphics/SVG/1.1/DTD/svg11.dtd" [
	<!ENTITY ns_flows "http://ns.adobe.com/Flows/1.0/">
]>
<svg version="1.1"
	 xmlns="http://www.w3.org/2000/svg" xmlns:xlink="http://www.w3.org/1999/xlink" xmlns:a="http://ns.adobe.com/AdobeSVGViewerExtensions/3.0/"
	 x="0px" y="0px" width="160px" height="151px" viewBox="-11 -6.369 160 151"
	 overflow="visible" enable-background="new -11 -6.369 160 151" xml:space="preserve">
<defs>
</defs>
<circle cx="69" cy="69" r="69"/>
<g id="XMLID_2_">
	<g>
		<path fill="#FFFFFF" d="M75.768,16.117c0.349,1.668-2.07,0.562-3.071,0.88c3.253,10.708-12.732,15.311-16.668,6.583
			c-1.607,0-3.223,0-4.831,0C46.208,6.092,72.59,1.61,75.768,16.117z"/>
		<path fill="#FFFFFF" d="M103.849,74.911c-1.229,0.379-2.669,0.546-3.511,1.312c-4.406-5.393-5.726-13.871-10.533-18.868
			c-2.73-0.334-6.954,0.819-8.335-0.872c-1.062-5.604,9.533-3.784,11.846-2.199C98.578,57.901,100.376,70.224,103.849,74.911z"/>
		<path fill="#FFFFFF" d="M115.694,62.186c-3.421,0.963-10.503-1.79-14.045,1.751c-0.22-1.828-1.531-2.555-1.752-4.383
			C104.926,57.105,114.7,57.644,115.694,62.186z"/>
		<path fill="#FFFFFF" d="M52.077,76.223c0,1.607,0,3.215,0,4.83C39.42,76.868,30.214,63.771,13.91,67.449
			c1.176-4.375,6.742-5.096,10.526-4.823C34.681,63.361,43.462,73.978,52.077,76.223z"/>
		<path fill="#FFFFFF" d="M84.102,48.142c0.645,5.991-11.155,3.42-17.988,3.951c-3.208-2.343-4.808-6.309-7.015-9.653
			c-3.329,4.285-6.029,9.191-9.214,13.604c4.027,4.595,13.4,4.391,15.789,9.654c1.684,3.693,0.44,11.473,0.44,16.668
			c0,6.756,0.25,21.514-8.334,14.916c-4.057-3.117-0.546-16.289-1.752-23.251c-3.807-2.419-7.545-4.36-12.285-7.022
			c-4.474-2.502-11.875-4.254-10.973-11.405c0.485-3.799,4.77-8.63,8.342-14.037c3.58-5.422,7.652-17.374,16.229-14.044
			c3.094,1.198,4.899,5.816,6.583,8.342c2.055,3.071,3.64,5.915,5.703,9.206C75.312,45.419,83.624,43.72,84.102,48.142z"/>
		<polygon fill="#FFFFFF" points="88.933,62.186 94.195,71.4 70.064,95.788 70.064,67.889 		"/>
	</g>
	<g>
		<path fill="none" stroke="#FFFFFF" stroke-width="6" stroke-miterlimit="10" d="M123.74,95.788c0,8.752-7.099,15.842-15.85,15.842
			s-15.842-7.09-15.842-15.842c0-8.751,7.091-15.842,15.842-15.842S123.74,87.037,123.74,95.788z"/>
		<path fill="none" stroke="#FFFFFF" stroke-width="6" stroke-miterlimit="10" d="M48.839,95.53c0,8.744-7.098,15.842-15.849,15.842
			c-8.744,0-15.842-7.098-15.842-15.842c0-8.751,7.098-15.849,15.842-15.849C41.741,79.681,48.839,86.779,48.839,95.53z"/>
	</g>
</g>
</svg>
