<?xml version="1.0" encoding="utf-8"?>
<!-- Generator: Adobe Illustrator 15.1.0, SVG Export Plug-In  -->
<!DOCTYPE svg PUBLIC "-//W3C//DTD SVG 1.1//EN" "http://www.w3.org/Graphics/SVG/1.1/DTD/svg11.dtd" [
	<!ENTITY ns_flows "http://ns.adobe.com/Flows/1.0/">
]>
<svg version="1.1"
	 xmlns="http://www.w3.org/2000/svg" xmlns:xlink="http://www.w3.org/1999/xlink" xmlns:a="http://ns.adobe.com/AdobeSVGViewerExtensions/3.0/"
	 x="0px" y="0px" width="160px" height="151px" viewBox="-43.184 -11.5 160 151"
	 overflow="visible" enable-background="new -43.184 -11.5 160 151" xml:space="preserve">
<defs>
</defs>
<path fill-rule="evenodd" clip-rule="evenodd" fill="#343434" d="M1.563,0c0.655,0,1.31,0,1.965,0
	c2.356,1.62,1.474,10.847,1.474,14.984c0,6.065,0,11.411,0,15.721c1.228,0,2.456,0,3.685,0c0.444-7.04,0.246-16.152,0.246-24.073
	c0-2.491-0.695-5.506,1.474-6.632c0.574,0,1.146,0,1.72,0C14.169,1.225,13.6,4.148,13.6,6.632c0,7.505,0,16.626,0,24.073
	c1.228,0,2.457,0,3.685,0c0.444-7.078,0.246-16.12,0.246-24.073c0-2.468-0.617-5.429,1.474-6.632c0.573,0,1.146,0,1.719,0
	c2.012,1.266,1.473,4.151,1.473,6.632c0,7.505,0,16.626,0,24.073c1.229,0,2.458,0,3.686,0c0.444-7.071,0.245-16.129,0.245-24.073
	c0-2.488-0.659-5.452,1.474-6.632c0.574,0,1.146,0,1.719,0c2.418,1.977,1.474,6.239,1.474,9.826c0,7.22,0,14.876,0,22.599
	c0,4.051,0.529,8.419-0.246,11.054c-1.134,3.857-4.813,5.666-8.352,6.141c0,19.493,0,42.374,0,63.13
	c0,6.8,0.389,11.629-5.158,13.019c-0.982,0-1.965,0-2.947,0c-5.594-1.394-5.159-6.496-5.159-13.264c0-20.589,0-43.447,0-62.885
	c-3.524-0.28-7.07-2.111-8.352-5.896c-0.88-2.599-0.491-6.535-0.491-10.808c0-8.007,0-14.483,0-22.599
	C0.09,6.323-0.545,0.592,1.563,0z"/>
<path fill-rule="evenodd" clip-rule="evenodd" fill="#343434" d="M54.376,0c1.146,0,2.293,0,3.439,0
	c2.642,0.461,6.396,2.651,7.859,6.632c1.176,3.198,0.737,8.449,0.737,13.756c0,29.209,0,58.021,0,86.958
	c0,8.612,1.339,17.381-5.649,18.176c-8.632,0.983-7.86-7.461-7.86-14.738c0-12.129,0-23.185,0-34.881
	c-2.294-0.162-5.239,0.326-7.124-0.245c0-15.351,0-36.108,0-52.812c0-6.22-0.598-12.534,0.982-16.704
	C47.89,3.162,51.127,0.831,54.376,0z"/>
</svg>
